# xmcd CD database file
# 
# Track frame offsets:
# 	150
# 	17494
# 	32799
# 	43466
# 	56332
# 	71090
# 	88635
# 	100303
# 	116425
# 	132055
# 	149489
# 	160030
# 	175316
# 	188681
# 	203552
# 	216366
# 
# Disc length: 3136 seconds
# 
# Submitted via: Nero 6, 3, 1, 17
# 
# Revision: 0
# Processed by: cddbd v1.5.1PL0 Copyright (c) Steve Scherf et al.
#
DISCID=e10c3e10
DTITLE=Marisa D'Amato - Heartaches and Roses
DYEAR=1900
DGENRE=
TTITLE0=Blue rose is
TTITLE1=One day at a time
TTITLE2=Dance with the one that brought you
TTITLE3=57 Chevrolet
TTITLE4=Banks of the Ohio
TTITLE5=For reasons I've forgotten
TTITLE6=San Antonio rose
TTITLE7=Save the last dance for me
TTITLE8=Jolene
TTITLE9=Hello Mr. Heartache
TTITLE10=Walk on By
TTITLE11=Till each tear becomes a rose (duet with J.J. Johns)
TTITLE12=Texas when I die
TTITLE13=Somewhere tonight
TTITLE14=Crystal chandeliers
TTITLE15=Cottage in the country
EXTD=
EXTT0=
EXTT1=
EXTT2=
EXTT3=
EXTT4=
EXTT5=
EXTT6=
EXTT7=
EXTT8=
EXTT9=
EXTT10=
EXTT11=
EXTT12=
EXTT13=
EXTT14=
EXTT15=
PLAYORDER=
